HIERARCHY
ROOT Hips
{
  OFFSET -102.467 93.6631 130.069
  CHANNELS 6 Xposition Yposition Zposition Zrotation Xrotation Yrotation
  JOINT LeftUpLeg
  {
    OFFSET 8.64259 1.95398 -2.38835
    CHANNELS 3 Zrotation Xrotation Yrotation
    JOINT LeftLeg
    {
      OFFSET 43.7702 0 0
      CHANNELS 3 Zrotation Xrotation Yrotation
      JOINT LeftFoot
      {
        OFFSET 40.6238 0 0
        CHANNELS 3 Zrotation Xrotation Yrotation
        JOINT LeftToeBase
        {
          OFFSET 12.7242 0 0
          CHANNELS 3 Zrotation Xrotation Yrotation
          End Site
          {
            OFFSET 0 0 0
          }
        }
      }
    }
  }
  JOINT RightUpLeg
  {
    OFFSET -8.2249 1.95398 -2.59336
    CHANNELS 3 Zrotation Xrotation Yrotation
    JOINT RightLeg
    {
      OFFSET 43.5653 0 0
      CHANNELS 3 Zrotation Xrotation Yrotation
      JOINT RightFoot
      {
        OFFSET 40.6238 0 0
        CHANNELS 3 Zrotation Xrotation Yrotation
        JOINT RightToeBase
        {
          OFFSET 12.7242 0 0
          CHANNELS 3 Zrotation Xrotation Yrotation
          End Site
          {
            OFFSET 0 0 0
          }
        }
      }
    }
  }
  JOINT Spine
  {
    OFFSET 0.165834 0.87714 6.61349
    CHANNELS 3 Zrotation Xrotation Yrotation
    JOINT Spine1
    {
      OFFSET 7.38963 1.71661e-005 0
      CHANNELS 3 Zrotation Xrotation Yrotation
      JOINT Spine2
      {
        OFFSET 11.9445 1.14441e-005 0
        CHANNELS 3 Zrotation Xrotation Yrotation
        JOINT Spine3
        {
          OFFSET 14.7254 4.19617e-005 0
          CHANNELS 3 Zrotation Xrotation Yrotation
          JOINT Spine4
          {
            OFFSET 10.9679 0 0
            CHANNELS 3 Zrotation Xrotation Yrotation
            JOINT RightShoulder
            {
              OFFSET 2.46616 -1.6653 3.69651
              CHANNELS 3 Zrotation Xrotation Yrotation
              JOINT RightArm
              {
                OFFSET 13.0012 0 0
                CHANNELS 3 Zrotation Xrotation Yrotation
                JOINT RightForeArm
                {
                  OFFSET 28.7848 1.52588e-005 0
                  CHANNELS 3 Zrotation Xrotation Yrotation
                  JOINT RightHand
                  {
                    OFFSET 26.5688 1.52588e-005 0
                    CHANNELS 3 Zrotation Xrotation Yrotation
                    End Site
                    {
                      OFFSET 0 0 0
                    }
                  }
                }
              }
            }
            JOINT LeftShoulder
            {
              OFFSET 2.38034 -1.29275 -3.7523
              CHANNELS 3 Zrotation Xrotation Yrotation
              JOINT LeftArm
              {
                OFFSET 16.3182 6.10351e-005 0
                CHANNELS 3 Zrotation Xrotation Yrotation
                JOINT LeftForeArm
                {
                  OFFSET 27.0901 0 0
                  CHANNELS 3 Zrotation Xrotation Yrotation
                  JOINT LeftHand
                  {
                    OFFSET 24.5451 1.52588e-005 0
                    CHANNELS 3 Zrotation Xrotation Yrotation
                    End Site
                    {
                      OFFSET 0 0 0
                    }
                  }
                }
              }
            }
            JOINT Neck
            {
              OFFSET 5.0226 -0.0266342 0
              CHANNELS 3 Zrotation Xrotation Yrotation
              JOINT Head
              {
                OFFSET 6.69363 2.86102e-005 0
                CHANNELS 3 Zrotation Xrotation Yrotation
                End Site
                {
                  OFFSET 0 0 0
                }
              }
            }
          }
        }
      }
    }
  }
}
MOTION
Frames:	14
Frame Time:	0.0416667
-51.1528 81.7192 33.3241 -72.0192 -85.0025 -75.5606 -174.228 27.0867 117.522 -27.6319 18.0556 6.089 37.4186 -10.9362 -7.57325 62.8478 3.93407 21.2717 168.929 56.82 64.3579 -104.825 -26.5959 -2.17942 52.2541 8.73853 12.205 51.7088 1.36941 18.6407 -0.788327 9.5752 -89.2753 7.72961 -1.25835 1.49663 -3.94165 -1.19126 1.55054 -26.4778 -1.64994 1.04927 -6.46517 -1.64994 1.04927 104.543 -28.5909 -77.127 -6.02037 2.94931 17.3172 -3.77216 0.990088 -37.4983 -5.45441 0.0463365 -6.8393 -80.9553 -22.5622 89.904 0.758279 -0.458525 27.5315 -7.5563 -17.7352 -27.3268 7.91573 -0.354325 -7.29959 1.93602 7.13933 -15.8651 -3.56691 9.66565 28.3752 
-44.4767 80.2507 33.7166 -73.7832 -83.7782 -78.212 -173.837 31.6245 113.794 -40.7014 15.1252 4.73505 52.5605 -2.88155 4.15439 59.9624 2.4298 17.6621 150.582 62.1462 85.3314 -105.966 -32.532 -1.17176 52.7693 8.39861 11.5249 52.7479 2.75274 22.5042 -0.930456 9.98804 -89.2349 6.90577 -1.5307 1.57131 -4.76531 -1.46008 1.63714 -27.3038 -1.93215 1.0386 -7.29113 -1.93215 1.03861 104.251 -33.4004 -78.0846 -0.370879 0.807264 17.9095 -2.49808 2.77625 -36.0979 -2.92721 0.0284123 -7.81624 -79.8894 -33.3888 93.0375 1.87886 -4.07187 23.3841 -9.20588 -19.7538 -31.7677 8.01966 -0.389818 -7.66185 13.4433 6.23577 -20.7157 -10.9887 9.46686 32.4902 
-39.3631 78.6934 32.6455 -41.0289 -85.5871 -48.1817 -177.517 41.1056 110.387 -52.9439 16.0587 3.70735 52.5531 -2.74294 3.51694 62.4152 1.9317 16.0638 131.892 62.8528 106.794 -98.5783 -36.6643 1.71402 54.4312 6.89452 8.69172 55.2103 3.04564 23.3949 -1.177 10.384 -89.2589 6.11694 -2.03893 1.52094 -5.55341 -1.97002 1.6092 -28.0986 -2.40172 0.837651 -8.08598 -2.40173 0.837646 105.89 -40.8755 -75.5883 4.11953 1.88377 11.354 -1.87935 3.72635 -30.49 -0.654706 -0.0248029 -7.68784 -81.4529 -45.3583 91.0624 5.57358 -5.33428 11.2199 -8.59867 -20.2583 -29.3869 9.23692 -0.420025 -7.60332 25.0448 3.73252 -21.3375 -15.4198 8.1802 31.3085 
-34.7655 77.7638 32.4275 29.3451 -83.3836 20.2543 -177.984 47.5474 105.463 -57.2889 19.8399 2.23955 57.2194 1.07774 5.78103 61.0219 1.17736 14.0029 127.477 61.1017 113.929 -84.2762 -35.1258 6.64646 53.9565 5.92666 4.95636 56.2613 2.40428 22.4365 -1.2951 10.3769 -89.5109 6.13026 -2.38112 1.03823 -5.539 -2.33311 1.14208 -28.0913 -2.583 0.274192 -8.0787 -2.58301 0.274182 105.728 -47.3665 -76.4245 8.5986 0.813633 4.16277 -4.17729 -1.63945 -21.1815 5.66296 -0.162128 -7.54947 -86.2478 -49.9729 84.1132 7.32392 -3.21691 -4.84884 -5.7576 -17.0499 -19.9512 7.15688 -0.383399 -7.89295 24.4802 2.34689 -15.5845 -10.7825 6.32889 24.7805 
-29.6344 77.9255 32.9024 67.4528 -82.9869 54.2063 -171.329 45.9168 95.1548 -59.2814 25.8506 -0.825682 58.6649 5.28771 14.6922 59.6274 0.658001 12.5758 142.288 59.62 101.932 -76.2693 -32.7133 7.76098 53.9968 4.03122 0.021399 15.5819 3.57733 12.7325 -1.10447 10.8401 -89.6264 5.19967 -2.05229 0.77325 -6.46995 -2.01626 0.862853 -29.018 -2.18976 0.120426 -9.00532 -2.18976 0.120431 103.791 -51.9096 -79.6915 9.42315 -0.936492 -3.08055 -5.93008 -11.5262 -14.4189 12.7092 -0.352111 -7.86716 -91.4757 -53.1747 76.9945 8.45929 -1.44537 -19.9467 -4.21709 -10.0382 -15.6088 6.36899 -0.414865 -8.61152 24.4754 0.748752 -5.62007 -7.95561 2.12324 16.8628 
-25.5703 77.9294 33.0251 104.305 -78.5733 86.4846 -168.407 43.0288 86.7021 -62.4435 25.589 -2.0456 58.9888 5.01591 12.948 56.6235 -0.378879 9.26794 156.291 56.72 91.2442 -80.12 -24.0379 3.79677 58.0712 -8.27975 -17.3689 45.0576 0.143489 13.2581 -1.08167 11.3191 -89.8952 4.2368 -2.11871 0.219967 -7.43246 -2.10696 0.313036 -29.9812 -2.08682 -0.427253 -9.96852 -2.08682 -0.427264 100.654 -52.5957 -84.4544 9.3749 -3.54693 -8.36583 -4.55783 -13.657 -11.5552 10.3925 -0.203432 -6.79571 -94.3563 -53.4498 72.9254 6.02636 1.2509 -31.3238 -2.45262 -1.70189 -19.1509 6.11299 -0.398911 -8.52016 21.8725 -1.02471 3.23153 -4.59723 -2.09589 9.29915 
-21.5154 77.445 33.0305 111.682 -74.7175 90.9957 -166.997 42.0797 79.977 -65.6924 27.0465 -2.70358 58.7811 6.03021 15.6996 56.1534 -0.578496 8.55897 170.474 58.2759 79.6009 -85.1141 -16.5622 -0.699572 56.3056 -4.12977 -12.1904 58.1325 -2.89654 9.9613 -0.890162 11.3946 -90.2382 4.0786 -1.87485 -0.456617 -7.59109 -1.89312 -0.373636 -30.1342 -1.65094 -0.999099 -10.1215 -1.65093 -0.999098 99.8472 -51.3131 -85.7277 8.5567 -3.67785 -14.3607 -2.60738 -6.7441 -12.4695 3.92721 -0.00618734 -4.51905 -95.0329 -53.7531 72.0442 4.34593 5.3099 -38.1901 0.369413 3.11005 -28.5398 6.13639 -0.354509 -7.91078 16.9261 -2.92796 7.22667 -0.94026 -4.72437 6.1352 
-17.7015 77.301 33.2842 109.22 -74.1968 91.6547 -167.681 43.6316 79.2678 -69.463 26.3623 -1.85996 60.1595 8.66424 19.0872 56.8468 -0.410829 9.18847 176.59 59.007 76.8415 -86.2171 -16.1028 -1.96683 51.0519 2.59288 -5.83311 65.8583 -5.61837 7.42213 -0.41521 11.21 -90.9676 4.442 -1.22364 -1.88408 -7.22959 -1.30536 -1.82843 -29.7556 -0.600972 -2.1646 -9.7429 -0.600959 -2.16461 99.1608 -51.6513 -86.7607 7.13436 0.829861 -21.0634 -1.38724 1.33459 -15.032 -0.554201 -0.0225597 -5.81586 -95.9048 -56.1134 71.4724 4.78722 8.72133 -39.7888 3.18076 3.70809 -38.5766 7.60674 -0.332537 -7.14705 13.3411 -3.49335 10.7446 0.294507 -6.01151 2.97851 
-14.6377 78.2992 33.7205 111.297 -73.8867 97.5752 -169.959 41.6319 81.0747 -69.4988 26.5719 -1.11782 61.5979 12.3193 24.0856 56.5157 -0.620903 8.48455 174.962 55.1124 80.1452 -84.0086 -12.9429 -1.85943 53.0632 0.969131 -6.24696 67.9366 -6.16253 7.20607 -0.16632 11.1515 -91.5491 4.54791 -0.964217 -3.02672 -7.1261 -1.09644 -2.98141 -29.633 -0.0104951 -3.17644 -9.62035 -0.0105002 -3.17645 97.9952 -51.3946 -88.5626 7.59734 2.55039 -25.9746 1.11657 8.98464 -19.7032 -2.57806 0.00687293 -7.10202 -95.0499 -55.8106 72.577 1.23229 10.3814 -38.5776 6.28892 3.90313 -44.1232 9.92117 -0.310307 -6.41044 11.7884 -3.39201 8.95624 0.324689 -5.2685 5.07407 
-12.5153 79.8507 34.5216 116.019 -76.4745 101.046 -168.412 37.8489 79.3256 -66.4137 25.3586 -2.1695 61.5071 12.6742 24.9393 56.8706 -0.932868 7.55861 178.246 51.1608 78.3688 -81.1355 -9.87517 -2.77831 56.9764 -3.12178 -8.94406 69.0543 -6.09792 7.72733 0.0542867 11.1294 -91.3211 4.60264 -0.431066 -2.58597 -7.07077 -0.544414 -2.56453 -29.5854 0.365775 -2.596 -9.5728 0.365765 -2.59601 97.8908 -50.5901 -88.7873 9.97397 2.21135 -30.3139 1.11405 8.90426 -22.5992 -0.773041 -0.0227878 -8.2307 -94.2052 -55.7509 73.7382 -1.64625 11.5581 -36.7868 9.92066 5.88089 -46.4522 11.227 -0.366602 -6.69421 13.084 -3.51735 6.32044 -2.3095 -4.91041 6.93696 
-10.7078 81.5645 34.969 111.189 -77.0982 97.0312 -169.226 37.2343 79.0403 -64.0162 23.5506 -2.20909 61.4199 11.4858 22.5506 56.1213 -1.07647 6.97879 178.395 49.556 77.6873 -78.0883 -8.17308 -2.83501 60.2948 -3.90342 -6.08174 63.4324 -5.26447 7.11754 0.119574 10.8932 -91.316 5.07707 -0.304045 -2.57607 -6.59634 -0.417098 -2.56022 -29.1115 0.483972 -2.54842 -9.09882 0.483969 -2.54843 97.8763 -50.1236 -88.8483 12.509 0.845671 -32.0936 -2.643 1.48898 -26.2981 0.485424 -0.0576278 -8.44259 -94.1894 -56.0236 73.8288 -3.50667 12.5646 -33.7641 12.6941 7.66423 -48.1443 12.5873 -0.238867 -5.50206 14.0259 -3.50844 5.50167 -3.78505 -4.82863 6.99004 
-9.25378 83.6119 35.5988 110.261 -78.1067 98.4472 -170.117 34.8288 81.0293 -60.2561 23.3937 -2.2621 61.7276 11.899 23.2144 54.9584 -1.28833 6.0465 178.805 47.3471 78.3919 -74.4331 -5.25061 -2.94219 59.314 0.900283 2.02864 58.7706 -3.62314 8.6689 0.198833 10.7643 -91.3792 5.33515 -0.174703 -2.70512 -6.33858 -0.293541 -2.69482 -28.852 0.646093 -2.63269 -8.83934 0.646087 -2.63269 97.4495 -51.0482 -89.4284 12.276 -2.08233 -33.5913 -6.9043 -6.72683 -27.9576 -1.43641 -0.00914427 -7.37743 -94.1842 -56.4471 73.9427 -5.25268 12.5323 -30.0917 14.4137 9.58776 -48.0092 12.3157 -0.0586592 -4.11805 15.2559 -2.98542 4.3605 -5.65309 -4.19438 7.86979 
-7.82389 85.814 36.1897 110.409 -76.7055 100.601 -172.408 32.022 82.4995 -56.6198 22.573 -1.60975 62.0324 11.0621 21.0231 52.7533 -1.4036 5.11466 176.298 42.9346 79.5854 -69.3793 -5.31775 -2.08454 60.2012 0.791858 2.43226 55.7566 -3.6422 7.31084 0.0191576 10.6663 -91.4592 5.5253 -0.569243 -2.85327 -6.14857 -0.694226 -2.82549 -28.6587 0.314216 -2.89244 -8.64604 0.314208 -2.89247 97.1092 -51.8548 -89.8755 12.9924 -4.13576 -33.2952 -11.4719 -15.1259 -29.5887 -6.99241 0.00187189 -5.61792 -94.4431 -56.8852 73.695 -7.17753 12.0107 -27.1993 14.9434 12.1305 -45.0696 11.2949 -0.0305538 -3.86936 16.2413 -2.69762 2.80298 -7.54476 -3.69067 9.33582 
-6.87234 87.9185 37.0375 111.597 -76.7734 102.865 -173.068 28.5899 83.767 -52.1867 22.7052 -1.58523 62.2343 10.1798 19.2862 51.1472 -1.54606 4.12984 175.9 38.8709 80.1754 -64.6188 -3.74026 -1.94699 61.1078 1.63934 5.31403 51.4649 -3.56648 5.36423 0.0109038 10.5882 -91.3431 5.68369 -0.539223 -2.62564 -5.98974 -0.654218 -2.5994 -28.5037 0.27452 -2.66632 -8.49103 0.274519 -2.66631 97.4124 -53.5097 -89.2702 13.3884 -5.52255 -31.5547 -14.2389 -18.8063 -31.8095 -8.55196 -0.197665 -2.59803 -94.1269 -56.4659 74.0267 -9.08527 11.826 -25.6923 15.9782 16.4175 -41.5172 9.13123 0.00442525 -3.4184 17.1119 -2.81259 0.511454 -9.04226 -3.3149 10.0242 
